<?xml version="1.0" standalone="no"?>
<!DOCTYPE svg PUBLIC "-//W3C//DTD SVG 20010904//EN"
 "http://www.w3.org/TR/2001/REC-SVG-20010904/DTD/svg10.dtd">
<svg version="1.0" xmlns="http://www.w3.org/2000/svg"
 width="215.000000pt" height="157.000000pt" viewBox="0 0 215.000000 157.000000"
 preserveAspectRatio="xMidYMid meet">

<g transform="translate(0.000000,157.000000) scale(0.100000,-0.100000)"
fill="#000000" stroke="none">
<path d="M828 1053 c6 -2 18 -2 25 0 6 3 1 5 -13 5 -14 0 -19 -2 -12 -5z"/>
<path d="M1380 1046 c-142 -24 -271 -71 -326 -119 -38 -32 -46 -62 -30 -100
l14 -32 1 30 c1 35 62 105 91 105 5 0 33 11 60 24 28 14 64 28 80 31 17 4 30
11 30 16 0 6 3 8 8 5 4 -2 34 2 67 10 79 18 268 19 320 2 59 -19 60 -54 3
-113 -24 -25 -49 -45 -56 -45 -7 0 -15 -7 -18 -15 -4 -8 -14 -15 -23 -15 -10
0 -26 -7 -37 -16 -18 -15 -18 -15 10 -9 47 10 116 46 152 80 26 25 34 40 34
68 0 68 -58 97 -204 102 -56 2 -135 -2 -176 -9z"/>
<path d="M723 1028 c-115 -36 -188 -134 -135 -180 23 -21 192 -77 192 -64 0 2
-23 12 -50 21 -28 9 -64 28 -80 42 -25 21 -30 31 -28 63 2 21 5 36 7 34 3 -2
19 9 36 26 17 16 57 41 90 54 71 30 55 32 -32 4z"/>
<path d="M997 1016 c4 -17 -5 -33 -31 -60 -25 -25 -32 -36 -21 -36 21 0 75 53
75 73 0 22 -11 47 -20 47 -4 0 -5 -11 -3 -24z"/>
<path d="M1440 934 c0 -8 -4 -13 -9 -10 -4 3 -15 -2 -24 -12 -30 -33 -106
-165 -101 -174 3 -5 19 11 35 36 16 26 53 70 84 100 59 58 67 76 35 76 -11 0
-20 -7 -20 -16z"/>
<path d="M1230 796 c0 -13 3 -26 8 -28 4 -1 17 -15 28 -30 l21 -27 -34 -68
c-19 -37 -36 -70 -39 -73 -3 -3 -3 22 0 55 l6 60 -16 -40 c-21 -53 -28 -105
-13 -105 7 0 9 -10 4 -27 -10 -43 -1 -26 40 69 20 48 43 92 51 99 11 9 27 -1
81 -51 122 -114 256 -190 340 -192 47 -2 58 1 74 21 25 30 24 63 -2 92 l-20
24 16 -27 c22 -36 11 -64 -31 -78 -52 -17 -118 4 -238 77 -67 41 -210 182
-236 234 -23 44 -40 51 -40 15z"/>
<path d="M1108 763 c7 -3 16 -2 19 1 4 3 -2 6 -13 5 -11 0 -14 -3 -6 -6z"/>
<path d="M875 748 c33 -19 45 -35 45 -61 0 -32 -38 -85 -75 -106 -16 -9 -32
-19 -35 -22 -10 -12 -52 -30 -57 -25 -3 3 -15 0 -27 -6 -22 -12 -176 -18 -176
-7 0 4 -15 12 -32 19 -18 7 -42 20 -54 29 -11 9 -3 0 17 -20 72 -68 192 -79
314 -28 134 56 182 143 116 210 -16 16 -35 29 -43 29 -7 0 -4 -6 7 -12z"/>
<path d="M1393 753 c9 -2 23 -2 30 0 6 3 -1 5 -18 5 -16 0 -22 -2 -12 -5z"/>
<path d="M370 663 c0 -13 34 -43 48 -43 7 0 12 -4 12 -9 0 -5 9 -7 21 -4 19 5
17 8 -14 22 -19 9 -41 22 -51 30 -9 7 -16 9 -16 4z"/>
</g>
</svg>
